<svg height="33" viewBox="0 0 153 33" width="153" xmlns="http://www.w3.org/2000/svg"><g fill="none" fill-rule="evenodd"><g fill="#081014" transform="translate(39.240001 6.36)"><path d="m16.9268897 2.51813345c-1.8472978-1.56035247-4.207574-2.43331442-6.6945821-2.43331442-5.62724568 0-10.2323076 4.44599841-10.2323076 9.98591867 0 5.5399202 4.60506192 9.9859186 10.2323076 9.9859186 2.5535084 0 4.9721738-.9204074 6.8381627-2.556895l-4.0868121-4.6599474c-.7413858.6502015-1.709697 1.018686-2.7513506 1.018686-2.25190193 0-4.0341512-1.7206886-4.0341512-3.7877622 0-2.0670737 1.78224927-3.78776227 4.0341512-3.78776227 1.0149746 0 1.9603544.34965424 2.695034.97021422z"/><path d="m28.648566.17998387h-6.1981564v19.87667243h13.1381664v-6.1981564h-6.94001z"/><path d="m54.2912588.6151192v19.0955137h5.8877139v-19.0955137z"/><path d="m71.9727494 0-6.425561 2.11057593 6.4964569 17.93808687h8.553154l6.4797437-17.94061953-6.427393-2.10551061-4.3310363 13.04881404z"/><path d="m100.203528 20.0566563c5.515071 0 9.985919-4.470848 9.985919-9.9859186 0-5.51507061-4.470848-9.98591867-9.985919-9.98591867-5.5150701 0-9.9859182 4.47084806-9.9859182 9.98591867 0 5.5150706 4.4708481 9.9859186 9.9859182 9.9859186zm0-6.1981564c-2.0919228 0-3.7877618-1.6958389-3.7877618-3.7877622 0-2.09192335 1.695839-3.78776227 3.7877618-3.78776227 2.091924 0 3.787763 1.69583892 3.787763 3.78776227 0 2.0919233-1.695839 3.7877622-3.787763 3.7877622z"/><path d="m49.9295932 20.0566563c5.5150706 0 9.9859187-4.470848 9.9859187-9.9859186 0-5.51507061-4.4708481-9.98591867-9.9859187-9.98591867s-9.9859186 4.47084806-9.9859186 9.98591867c0 5.5150706 4.470848 9.9859186 9.9859186 9.9859186zm.5739034-6.1981564c-2.0919233 0-3.7877622-1.6958389-3.7877622-3.7877622 0-2.09192335 1.6958389-3.78776227 3.7877622-3.78776227s3.7877622 1.69583892 3.7877622 3.78776227c0 2.0919233-1.6958389 3.7877622-3.7877622 3.7877622z"/></g><g fill-rule="nonzero"><path d="m24.8051166 22.0106817c-7.5149503 0-12.5926194.8303255-18.51898462 0-2.17667544-.3049675-1.18237152 6.0198598 0 6.2274412 5.65904972.993523 16.58947032 1.0379069 18.51898462 0 1.0867694-.5845851 2.0310677-6.2274412 0-6.2274412z" fill="#09d3e0"/><path d="m7.24689568 9.93311383c2.82152912.39547757 12.65033952-1.14079264 19.04524282 0 2.2771487.40622257 2.2771487-5.6871166 0-6.09333922-5.8287959-1.03980423-13.5559678-1.19684494-19.04524282 0-1.86312158.40622262-1.44909456 5.89022791 0 6.09333922z" fill="#ff5979"/><path d="m1.5102155 19.0179755c2.56536944.6663786 11.6014096.6185758 17.8915341 0 1.556703-.1530874 2.6377942-6.3919496 0-6.1857577-6.8547393.5358234-12.27242267-.9658387-17.8915341 0-2.39919028.4123839-1.58756131 5.7733739 0 6.1857577z" fill="#4b61ee" transform="matrix(1 0 0 -1 0 32)"/></g></g></svg>